<?xml version="1.0" encoding="utf-8"?>
<!-- Generator: Adobe Illustrator 24.1.3, SVG Export Plug-In . SVG Version: 6.00 Build 0)  -->
<svg version="1.1" id="Capa_1" xmlns="http://www.w3.org/2000/svg" xmlns:xlink="http://www.w3.org/1999/xlink" x="0px" y="0px"
	 viewBox="0 0 512 512" style="enable-background:new 0 0 512 512;" xml:space="preserve">
<style type="text/css">
	.st0{fill:#EFECEF;}
	.st1{fill:#6C2546;}
	.st2{fill:#FF4568;}
	.st3{fill:#F6E266;}
	.st4{fill:#AFC9C9;}
	.st5{fill:#5F9293;}
	.st6{fill:#B795B7;}
	.st7{fill:#A67BA5;}
	.st8{fill:#1F4167;}
	.st9{fill:#FFFFFF;}
</style>
<g>
	<g>
		<g>
			<path class="st0" d="M454.8,17.4c-138.2-10.9-259.3-6-397.5,4.9c-20.6,1.6-37.1,17.8-39.4,38.3C15.6,82.3,5,89.9,3.6,111.6
				c-6,90.2-4.1,180.4,5.7,270.6c2.2,20.6,18.7,36.7,39.4,38.3c138.2,10.9,276.5,10.9,414.7,0c20.6-1.6,37.1-17.8,39.4-38.3
				c9.8-90.2,11.7-180.4,5.7-270.6c-1.4-21.7-11.9-34.1-14.2-55.8C491.9,35.2,475.5,19.1,454.8,17.4L454.8,17.4z"/>
			<path class="st1" d="M508.4,111.5l-0.2,0c-168.1-14.8-336.3-14.8-504.4,0l-0.2,0c1.4-21.7,3.3-43.3,5.7-65
				C11.5,25.9,28,9.8,48.6,8.2c138.2-10.9,276.5-10.9,414.7,0c20.6,1.6,37.1,17.8,39.4,38.4C505.1,68.2,507,89.9,508.4,111.5
				L508.4,111.5z"/>
			<circle class="st2" cx="65.3" cy="54.7" r="24.1"/>
			<circle class="st0" cx="210.2" cy="54.7" r="24.1"/>
			<circle class="st3" cx="137.8" cy="54.7" r="24.1"/>
		</g>
	</g>
	<g>
		<g>
			<path class="st4" d="M185.4,512c157.5-64.5,153-246.1,153-246.1c-49.5-49.5-153-66-153-66s-103.5,16.5-153,66
				C32.3,265.9,27.8,447.5,185.4,512L185.4,512z"/>
			<path class="st5" d="M185.4,512c-157.5-64.5-153-246.1-153-246.1c48.4-48.4,148.6-65.3,152.9-66c-3.4,0.7-65.2,13-108.9,46.5
				c-13.7,10.5-21.1,27.4-19.6,44.7C61.1,343.2,82.5,462.3,185.4,512L185.4,512z"/>
			<path class="st6" d="M185.4,475.3c-48.7-23.7-83.4-63.9-103.3-119.6c-11-30.8-14.6-59.1-15.7-75.2c34.7-26.6,92.3-41.7,119-46.7
				c26.7,5,84.4,20.2,119,46.7c-1.2,16.1-4.8,44.3-15.7,75.2C268.8,411.4,234.1,451.6,185.4,475.3L185.4,475.3z"/>
			<path class="st7" d="M185.4,475.3c-48.7-23.7-83.4-63.9-103.3-119.6c-11-30.8-14.6-59.1-15.7-75.2c34.7-26.6,92.3-41.7,119-46.7
				c-13.5,2.9-36.2,9.3-58.7,19.3C98,266.1,106.2,330.4,112.4,356C126.2,412.6,143.1,451.6,185.4,475.3L185.4,475.3z"/>
		</g>
	</g>
	<g>
		<path class="st8" d="M473.1,158.2H304.4c-4.3,0-7.7-3.5-7.7-7.7c0-4.3,3.5-7.7,7.7-7.7h168.7c4.3,0,7.7,3.5,7.7,7.7
			C480.8,154.7,477.4,158.2,473.1,158.2z"/>
		<path class="st8" d="M473.1,201.4H304.4c-4.3,0-7.7-3.5-7.7-7.7s3.5-7.7,7.7-7.7h168.7c4.3,0,7.7,3.5,7.7,7.7
			C480.8,197.9,477.4,201.4,473.1,201.4z"/>
		<path class="st8" d="M473.1,244.6H356.3c-4.3,0-7.7-3.5-7.7-7.7c0-4.3,3.5-7.7,7.7-7.7h116.8c4.3,0,7.7,3.5,7.7,7.7
			C480.8,241.1,477.4,244.6,473.1,244.6z"/>
	</g>
	<path class="st9" d="M185.4,416c-4.1,0-8-1.6-10.9-4.5l-47.6-47.6c-6-6-6-15.8,0-21.8c6-6,15.8-6,21.8,0l32.7,32.7l39.3-75.1
		c3.9-7.6,13.3-10.5,20.8-6.5c7.6,3.9,10.5,13.3,6.5,20.8l-49,93.8c-2.3,4.4-6.5,7.4-11.3,8.1C186.9,415.9,186.1,416,185.4,416
		L185.4,416z"/>
</g>
</svg>
